<svg width="1373" height="360" viewBox="0 0 1373 360" fill="none" xmlns="http://www.w3.org/2000/svg">
<g clip-path="url(#clip0)">
<ellipse cx="94" cy="144" rx="22" ry="19" fill="#DB8C5D"/>
<ellipse cx="263" cy="144" rx="22" ry="19" fill="#DB8C5D"/>
<path fill-rule="evenodd" clip-rule="evenodd" d="M178 43C147 43 95.5 54.2 95.5 125C95.6088 125 95.7165 125 95.823 125C93.9778 136.056 93.4095 147.025 94.6942 156.5C97.8942 180.1 128.361 198 143.194 204C148.028 206 161.894 210 178.694 210C195.494 210 209.361 206 214.194 204C229.028 198 259.494 180.1 262.694 156.5C263.99 146.946 263.392 135.882 261.5 124.742C261.375 54.1727 209.962 43 179 43H178Z" fill="#F0A06F"/>
<path fill-rule="evenodd" clip-rule="evenodd" d="M202.605 43.9447C204.768 40.8523 206 37.2907 206 33.5C206 21.6259 193.912 12 179 12C164.088 12 152 21.6259 152 33.5C152 37.1485 153.141 40.5847 155.155 43.5946C107.714 53.0133 95.5 92.4877 95.5 127L100 126.5C101.087 125.413 102.804 111.652 103.737 103.003C103.618 108.01 105.236 115.264 106.5 114C107.7 112.8 117.667 109.5 122.5 108C124.027 105.709 125.263 93.213 125.539 88.7699C126.044 92.5397 129.25 101.478 131 106C134.2 104.8 149.333 103.167 156.5 102.5C157.3 101.3 159.833 85.3333 161 77.5C162.2 79.9 164.5 95.1667 165.5 102.5C166.053 102.5 167.367 102.432 169.026 102.346L169.026 102.346L169.027 102.346C171.868 102.199 175.722 102 178.5 102C181.128 102 184.72 102.178 187.612 102.322H187.612H187.612C189.562 102.419 191.195 102.5 192 102.5C193 95.1667 195.3 79.9 196.5 77.5C197.667 85.3333 200.2 101.3 201 102.5C208.167 103.167 223.3 104.8 226.5 106C228.25 101.478 231.456 92.5397 231.961 88.7699C232.237 93.213 233.473 105.709 235 108C239.833 109.5 249.8 112.8 251 114C252.264 115.264 253.882 108.01 253.763 103.003C254.696 111.652 256.413 125.413 257.5 126.5L262 127C262 92.8997 248.958 53.9551 202.605 43.9447ZM125.5 87.5C125.45 87.7996 125.467 88.2321 125.539 88.7699C125.625 87.3947 125.618 86.7909 125.5 87.5ZM103.737 103.003C103.834 102.107 103.922 101.266 104 100.5C103.842 101.209 103.759 102.066 103.737 103.003Z" fill="#ECECEC"/>
<circle cx="144" cy="130" r="17" fill="white" stroke="#8C501D" stroke-width="2"/>
<circle cx="215" cy="130" r="17" fill="white" stroke="#8C501D" stroke-width="2"/>
<circle cx="146" cy="129" r="11" fill="#8C501D"/>
<circle cx="213" cy="129" r="11" fill="#8C501D"/>
<path d="M193 162C193 168.075 187.404 173 180.5 173C173.596 173 168 168.075 168 162" stroke="#841616" stroke-width="3" stroke-linecap="round"/>
<path d="M181 130L189.66 152.5H172.34L181 130Z" fill="#841616"/>
<path fill-rule="evenodd" clip-rule="evenodd" d="M155.353 207.521C144.473 209.609 126.11 218.194 108.5 242C93.5708 262.182 83.8327 274.609 76.5453 283.112C75.8737 283.038 75.1913 283 74.5 283C64.2827 283 56 291.283 56 301.5C56 311.717 64.2827 320 74.5 320C84.7173 320 93 311.717 93 301.5C93 298.965 92.49 296.549 91.567 294.348C105.418 280.375 125.52 260.542 137.853 253.5C133.649 267.573 123.181 325.514 137.853 360.5H173.5L179.75 337.5L186.5 360.5H221.647C236.319 325.514 225.851 267.573 221.647 253.5C233.409 260.216 253.274 279.603 267.588 293.989C266.567 296.285 266 298.826 266 301.5C266 311.717 274.283 320 284.5 320C294.717 320 303 311.717 303 301.5C303 291.283 294.717 283 284.5 283C284.035 283 283.574 283.017 283.118 283.051C275.383 274.008 265.073 261.025 251 242C232.741 217.317 213.672 208.997 202.975 207.316C196.493 208.76 188.048 210 178.694 210C169.786 210 161.702 208.875 155.353 207.521Z" fill="#F0A06F"/>
<path fill-rule="evenodd" clip-rule="evenodd" d="M229.071 306.164C221.576 306.79 194.092 309 179.5 309C166.48 309 141.434 307.24 130.421 306.416C129.794 325.082 131.367 345.034 137.853 360.5H173.5L179.75 337.5L186.5 360.5H221.647C228.163 344.964 229.72 324.901 229.071 306.164Z" fill="#212121"/>
<g style="mix-blend-mode:hard-light" opacity="0.1" filter="url(#filter0_f)">
<path fill-rule="evenodd" clip-rule="evenodd" d="M210.094 209.12C209.12 214.652 206.646 223.035 205.476 227C205.054 228.429 204.749 230.949 204.395 233.872C203.51 241.173 202.321 250.985 198.25 252.584C192.549 254.822 186.083 256 179.5 256C172.917 256 166.451 254.822 160.75 252.584C155.049 250.346 153.5 237.5 153.5 228C153.5 222.367 151.733 217.428 150.295 213.408C149.756 211.901 149.263 210.523 148.927 209.285C151.272 208.462 153.43 207.89 155.353 207.521C161.702 208.875 169.786 210 178.694 210C188.048 210 196.493 208.76 202.975 207.316C205.054 207.642 207.45 208.22 210.094 209.12Z" fill="#700000"/>
</g>
<mask id="mask0" mask-type="alpha" maskUnits="userSpaceOnUse" x="128" y="207" width="103" height="105">
<path d="M179.5 311.5C165.9 311.5 140 310 129 307.5C128.505 300.077 136 259 137 254C141.846 249.163 142.205 224.469 142.5 212C144.9 210.4 151.667 208.167 154.5 207.5C157 208.167 162 209.3 162 212.5C162 209.5 170.5 210.3 170.5 213.5C170.5 211 179.5 211 179.5 215C179.5 211 188.5 211 188.5 213.5C188.5 210.3 197 209.5 197 212.5C197 209.7 202 208 204.5 207.5C207.333 208.167 214.6 210.4 217 212C217.167 223.5 218.5 248 222.5 254C225.333 269 231.2 301.5 230 307.5C219 310 193.1 311.5 179.5 311.5Z" fill="#FFFCEA"/>
</mask>
<g mask="url(#mask0)">
<rect x="138" y="205" width="83" height="50" fill="#FFECEC"/>
<g filter="url(#filter1_d)">
<path d="M153.5 206.5C161.167 213.833 178 230 180 230C182.5 230 206 207.5 206 206.5" stroke="#FFDC99"/>
<path d="M183.378 227.309C181.576 226.239 180.375 228.202 180 229.317C179.625 228.202 178.424 226.239 176.622 227.309C174.37 228.648 178.874 234 180 234C181.126 234 185.63 228.648 183.378 227.309Z" fill="#FFA7A7"/>
</g>
</g>
<mask id="mask1" mask-type="alpha" maskUnits="userSpaceOnUse" x="128" y="207" width="103" height="105">
<path d="M179.5 311.5C165.9 311.5 140 310 129 307.5C128.505 300.077 136 259 137 254C139.041 242.8 146.517 238.333 150 237.5C151.6 235.1 147.333 218.833 145 211C147.4 209.4 151.667 208.167 154.5 207.5C156.5 215 160 231.9 160 235.5C164.5 235.5 174.4 239.2 180 246C185.6 239.2 195.5 235.5 200 235.5C200 231.9 203.5 215 205.5 207.5C208.333 208.167 212.6 209.4 215 211C212.667 218.833 208.4 235.1 210 237.5C213.483 238.333 220.959 242.8 223 254C225.833 269 231.2 301.5 230 307.5C219 310 193.1 311.5 179.5 311.5Z" fill="black"/>
</mask>
<g mask="url(#mask1)">
<rect x="72" y="197" width="213" height="163" fill="#FFA7A7"/>
<rect x="163" y="235" width="3" height="80" fill="#FFCFCF" fill-opacity="0.6"/>
<rect x="144" y="206" width="3" height="109" fill="#FFCFCF" fill-opacity="0.6"/>
<rect x="182" y="239" width="3" height="76" fill="#FFCFCF" fill-opacity="0.6"/>
<rect x="201" y="204" width="3" height="109" fill="#FFCFCF" fill-opacity="0.6"/>
<rect x="220" y="240" width="3" height="74" fill="#FFCFCF" fill-opacity="0.6"/>
<rect x="169" y="236" width="3" height="81" fill="#FFCFCF" fill-opacity="0.6"/>
<rect x="150" y="203" width="3" height="109" fill="#FFCFCF" fill-opacity="0.6"/>
<rect x="131" y="208" width="3" height="109" fill="#FFCFCF" fill-opacity="0.6"/>
<rect x="240" y="251" width="3" height="109" transform="rotate(90 240 251)" fill="#FFCFCF" fill-opacity="0.6"/>
<rect x="240" y="308" width="3" height="109" transform="rotate(90 240 308)" fill="#FFCFCF" fill-opacity="0.6"/>
<rect x="240" y="232" width="3" height="109" transform="rotate(90 240 232)" fill="#FFCFCF" fill-opacity="0.6"/>
<rect x="234" y="289" width="3" height="109" transform="rotate(90 234 289)" fill="#FFCFCF" fill-opacity="0.6"/>
<rect x="240" y="213" width="3" height="109" transform="rotate(90 240 213)" fill="#FFCFCF" fill-opacity="0.6"/>
<rect x="240" y="270" width="3" height="109" transform="rotate(90 240 270)" fill="#FFCFCF" fill-opacity="0.6"/>
<rect x="238" y="257" width="3" height="109" transform="rotate(90 238 257)" fill="#FFCFCF" fill-opacity="0.6"/>
<rect x="238" y="238" width="3" height="109" transform="rotate(90 238 238)" fill="#FFCFCF" fill-opacity="0.6"/>
<rect x="234" y="295" width="3" height="109" transform="rotate(90 234 295)" fill="#FFCFCF" fill-opacity="0.6"/>
<rect x="238" y="219" width="3" height="109" transform="rotate(90 238 219)" fill="#FFCFCF" fill-opacity="0.6"/>
<rect x="238" y="276" width="3" height="109" transform="rotate(90 238 276)" fill="#FFCFCF" fill-opacity="0.6"/>
<rect x="188" y="236" width="3" height="81" fill="#FFCFCF" fill-opacity="0.6"/>
<rect x="207" y="206" width="3" height="109" fill="#FFCFCF" fill-opacity="0.6"/>
<rect x="226" y="241" width="3" height="74" fill="#FFCFCF" fill-opacity="0.6"/>
</g>
<g filter="url(#filter2_d)">
<path fill-rule="evenodd" clip-rule="evenodd" d="M180 0C80.5887 0 0 80.5887 0 180C0 279.411 80.5887 360 180 360C279.411 360 360 279.411 360 180C360 80.5887 279.411 0 180 0ZM180 15C88.873 15 15 88.873 15 180C15 271.127 88.873 345 180 345C271.127 345 345 271.127 345 180C345 88.873 271.127 15 180 15Z" fill="white"/>
</g>
</g>
<path d="M443.57 231H422.477V128.625H443.57V231ZM524.781 189.164H484.281V231H463.188V128.625H529.844V145.711H484.281V172.148H524.781V189.164ZM631.023 204.141C631.023 200.156 629.617 197.109 626.805 195C623.992 192.844 618.93 190.594 611.617 188.25C604.305 185.859 598.516 183.516 594.25 181.219C582.625 174.938 576.812 166.477 576.812 155.836C576.812 150.305 578.359 145.383 581.453 141.07C584.594 136.711 589.07 133.312 594.883 130.875C600.742 128.438 607.305 127.219 614.57 127.219C621.883 127.219 628.398 128.555 634.117 131.227C639.836 133.852 644.266 137.578 647.406 142.406C650.594 147.234 652.188 152.719 652.188 158.859H631.094C631.094 154.172 629.617 150.539 626.664 147.961C623.711 145.336 619.562 144.023 614.219 144.023C609.062 144.023 605.055 145.125 602.195 147.328C599.336 149.484 597.906 152.344 597.906 155.906C597.906 159.234 599.57 162.023 602.898 164.273C606.273 166.523 611.219 168.633 617.734 170.602C629.734 174.211 638.477 178.688 643.961 184.031C649.445 189.375 652.188 196.031 652.188 204C652.188 212.859 648.836 219.82 642.133 224.883C635.43 229.898 626.406 232.406 615.062 232.406C607.188 232.406 600.016 230.977 593.547 228.117C587.078 225.211 582.133 221.25 578.711 216.234C575.336 211.219 573.648 205.406 573.648 198.797H594.812C594.812 210.094 601.562 215.742 615.062 215.742C620.078 215.742 623.992 214.734 626.805 212.719C629.617 210.656 631.023 207.797 631.023 204.141ZM688.961 231H667.867V128.625H688.961V231ZM791.828 231H770.734L729.672 163.641V231H708.578V128.625H729.672L770.805 196.125V128.625H791.828V231ZM842.312 189.938L831.344 201.75V231H810.25V128.625H831.344V175.031L840.625 162.305L866.711 128.625H892.656L856.305 174.117L893.711 231H868.609L842.312 189.938ZM963.25 186.633H922.75V214.055H970.281V231H901.656V128.625H970.141V145.711H922.75V170.109H963.25V186.633ZM1020.48 205.617L1043.69 128.625H1067.17L1031.52 231H1009.52L974.008 128.625H997.422L1020.48 205.617ZM1099.3 231H1078.21V128.625H1099.3V231ZM1199.29 196.898C1198.49 207.914 1194.41 216.586 1187.05 222.914C1179.74 229.242 1170.09 232.406 1158.09 232.406C1144.96 232.406 1134.62 228 1127.08 219.188C1119.58 210.328 1115.83 198.188 1115.83 182.766V176.508C1115.83 166.664 1117.56 157.992 1121.03 150.492C1124.5 142.992 1129.45 137.25 1135.87 133.266C1142.34 129.234 1149.84 127.219 1158.37 127.219C1170.18 127.219 1179.7 130.383 1186.91 136.711C1194.13 143.039 1198.3 151.922 1199.43 163.359H1178.34C1177.82 156.75 1175.97 151.969 1172.78 149.016C1169.64 146.016 1164.84 144.516 1158.37 144.516C1151.34 144.516 1146.06 147.047 1142.55 152.109C1139.08 157.125 1137.3 164.93 1137.2 175.523V183.258C1137.2 194.32 1138.87 202.406 1142.2 207.516C1145.57 212.625 1150.87 215.18 1158.09 215.18C1164.6 215.18 1169.45 213.703 1172.64 210.75C1175.88 207.75 1177.73 203.133 1178.2 196.898H1199.29ZM1296.46 231H1275.37V187.125H1234.23V231H1213.14V128.625H1234.23V170.109H1275.37V128.625H1296.46V231Z" fill="white"/>
<defs>
<filter id="filter0_f" x="146.927" y="205.316" width="65.1671" height="52.6844" filterUnits="userSpaceOnUse" color-interpolation-filters="sRGB">
<feFlood flood-opacity="0" result="BackgroundImageFix"/>
<feBlend mode="normal" in="SourceGraphic" in2="BackgroundImageFix" result="shape"/>
<feGaussianBlur stdDeviation="1" result="effect1_foregroundBlur"/>
</filter>
<filter id="filter1_d" x="150.154" y="203.139" width="61.3456" height="35.8613" filterUnits="userSpaceOnUse" color-interpolation-filters="sRGB">
<feFlood flood-opacity="0" result="BackgroundImageFix"/>
<feColorMatrix in="SourceAlpha" type="matrix" values="0 0 0 0 0 0 0 0 0 0 0 0 0 0 0 0 0 0 127 0"/>
<feOffset dx="1" dy="1"/>
<feGaussianBlur stdDeviation="2"/>
<feColorMatrix type="matrix" values="0 0 0 0 1 0 0 0 0 0.654902 0 0 0 0 0.654902 0 0 0 0.5 0"/>
<feBlend mode="normal" in2="BackgroundImageFix" result="effect1_dropShadow"/>
<feBlend mode="normal" in="SourceGraphic" in2="effect1_dropShadow" result="shape"/>
</filter>
<filter id="filter2_d" x="-4" y="-4" width="370" height="370" filterUnits="userSpaceOnUse" color-interpolation-filters="sRGB">
<feFlood flood-opacity="0" result="BackgroundImageFix"/>
<feColorMatrix in="SourceAlpha" type="matrix" values="0 0 0 0 0 0 0 0 0 0 0 0 0 0 0 0 0 0 127 0"/>
<feOffset dx="1" dy="1"/>
<feGaussianBlur stdDeviation="2.5"/>
<feColorMatrix type="matrix" values="0 0 0 0 0 0 0 0 0 0 0 0 0 0 0 0 0 0 0.25 0"/>
<feBlend mode="overlay" in2="BackgroundImageFix" result="effect1_dropShadow"/>
<feBlend mode="normal" in="SourceGraphic" in2="effect1_dropShadow" result="shape"/>
</filter>
<clipPath id="clip0">
<rect width="360" height="360" rx="180" fill="white"/>
</clipPath>
</defs>
</svg>
